<svg data-v-423bf9ae="" xmlns="http://www.w3.org/2000/svg" viewBox="0 0 350.49617360948514 180" class="iconAbove"><!----><!----><!----><g data-v-423bf9ae="" id="f32987c1-29f9-4d69-89e4-09cbc931d880" fill="black" transform="matrix(5.725190568780254,0,0,5.725190568780254,-1.6030462975635942,104.53327712948226)"><path d="M6.58 10.32L7.56 10.32L7.45 12.85L0.28 12.85L0.28 12.32L5.33 4.33L1.78 4.33L1.40 6.13L0.42 6.13L0.53 3.58L7.28 3.58L7.28 4.12L2.23 12.11L6.22 12.11L6.58 10.32ZM12.33 11.49L12.33 9.23L12.33 9.23Q12.01 9.32 11.72 9.42L11.72 9.42L11.72 9.42Q11.44 9.52 11.24 9.59L11.24 9.59L11.24 9.59Q10.49 9.88 10.25 10.26L10.25 10.26L10.25 10.26Q10.01 10.63 10.01 11.00L10.01 11.00L10.01 11.00Q10.01 11.28 10.09 11.45L10.09 11.45L10.09 11.45Q10.16 11.62 10.29 11.75L10.29 11.75L10.29 11.75Q10.60 12.05 11.10 12.05L11.10 12.05L11.10 12.05Q11.38 12.05 11.64 11.94L11.64 11.94L11.64 11.94Q11.90 11.82 12.33 11.49L12.33 11.49ZM14.83 11.83L15.15 12.11L15.15 12.11Q14.88 12.63 14.57 12.81L14.57 12.81L14.57 12.81Q14.25 12.99 13.80 12.99L13.80 12.99L13.80 12.99Q13.22 12.99 12.87 12.74L12.87 12.74L12.87 12.74Q12.52 12.49 12.39 12.05L12.39 12.05L12.39 12.05Q12.14 12.31 11.91 12.50L11.91 12.50L11.91 12.50Q11.68 12.68 11.45 12.81L11.45 12.81L11.45 12.81Q11.21 12.94 10.95 13.00L10.95 13.00L10.95 13.00Q10.68 13.06 10.36 13.06L10.36 13.06L10.36 13.06Q9.56 13.06 9.02 12.62L9.02 12.62L9.02 12.62Q8.47 12.18 8.47 11.34L8.47 11.34L8.47 11.34Q8.47 11.03 8.57 10.74L8.57 10.74L8.57 10.74Q8.67 10.44 8.94 10.16L8.94 10.16L8.94 10.16Q9.21 9.87 9.70 9.60L9.70 9.60L9.70 9.60Q10.18 9.34 10.93 9.07L10.93 9.07L10.93 9.07Q11.21 8.97 11.59 8.87L11.59 8.87L11.59 8.87Q11.96 8.76 12.33 8.65L12.33 8.65L12.33 8.27L12.33 8.27Q12.33 7.32 12.05 6.96L12.05 6.96L12.05 6.96Q11.76 6.59 11.07 6.59L11.07 6.59L11.07 6.59Q10.95 6.59 10.80 6.61L10.80 6.61L10.80 6.61Q10.65 6.62 10.50 6.65L10.50 6.65L10.30 7.55L10.30 7.55Q10.14 8.43 9.44 8.43L9.44 8.43L9.44 8.43Q9.13 8.43 8.93 8.25L8.93 8.25L8.93 8.25Q8.74 8.06 8.69 7.77L8.69 7.77L8.69 7.77Q8.83 6.96 9.59 6.45L9.59 6.45L9.59 6.45Q10.35 5.94 11.56 5.94L11.56 5.94L11.56 5.94Q12.77 5.94 13.32 6.52L13.32 6.52L13.32 6.52Q13.87 7.11 13.87 8.57L13.87 8.57L13.87 11.51L13.87 11.51Q13.87 12.17 14.28 12.17L14.28 12.17L14.28 12.17Q14.43 12.17 14.55 12.09L14.55 12.09L14.55 12.09Q14.66 12.01 14.76 11.90L14.76 11.90L14.83 11.83ZM17.39 4.59L17.39 4.59L17.39 4.59Q16.94 4.59 16.63 4.31L16.63 4.31L16.63 4.31Q16.32 4.03 16.32 3.58L16.32 3.58L16.32 3.58Q16.32 3.14 16.63 2.86L16.63 2.86L16.63 2.86Q16.94 2.58 17.39 2.58L17.39 2.58L17.39 2.58Q17.84 2.58 18.14 2.86L18.14 2.86L18.14 2.86Q18.44 3.14 18.44 3.58L18.44 3.58L18.44 3.58Q18.44 4.03 18.14 4.31L18.14 4.31L18.14 4.31Q17.84 4.59 17.39 4.59ZM18.20 12.11L19.08 12.29L19.08 12.85L15.67 12.85L15.67 12.29L16.62 12.11L16.62 12.11Q16.63 11.58 16.63 10.98L16.63 10.98L16.63 10.98Q16.63 10.37 16.63 9.91L16.63 9.91L16.63 9.21L16.63 9.21Q16.63 8.64 16.62 8.25L16.62 8.25L16.62 8.25Q16.60 7.87 16.59 7.45L16.59 7.45L15.57 7.32L15.57 6.80L18.02 5.94L18.23 6.08L18.19 8.02L18.19 9.91L18.19 9.91Q18.19 10.37 18.19 10.98L18.19 10.98L18.19 10.98Q18.19 11.59 18.20 12.11L18.20 12.11ZM26.77 12.11L27.66 12.29L27.66 12.85L24.25 12.85L24.25 12.29L25.19 12.11L25.19 12.11Q25.20 11.59 25.20 10.99L25.20 10.99L25.20 10.99Q25.20 10.39 25.20 9.91L25.20 9.91L25.20 8.62L25.20 8.62Q25.20 7.74 24.98 7.37L24.98 7.37L24.98 7.37Q24.77 7 24.22 7L24.22 7L24.22 7Q23.77 7 23.35 7.22L23.35 7.22L23.35 7.22Q22.93 7.43 22.47 7.87L22.47 7.87L22.47 9.91L22.47 9.91Q22.47 10.37 22.47 10.98L22.47 10.98L22.47 10.98Q22.47 11.58 22.48 12.11L22.48 12.11L23.38 12.29L23.38 12.85L19.95 12.85L19.95 12.29L20.90 12.11L20.90 12.11Q20.92 11.58 20.92 10.98L20.92 10.98L20.92 10.98Q20.92 10.37 20.92 9.91L20.92 9.91L20.92 9.16L20.92 9.16Q20.92 8.58 20.90 8.23L20.90 8.23L20.90 8.23Q20.89 7.87 20.87 7.45L20.87 7.45L19.85 7.32L19.85 6.80L22.11 5.94L22.32 6.08L22.43 7.20L22.43 7.20Q22.99 6.57 23.55 6.25L23.55 6.25L23.55 6.25Q24.12 5.94 24.82 5.94L24.82 5.94L24.82 5.94Q25.79 5.94 26.27 6.53L26.27 6.53L26.27 6.53Q26.75 7.13 26.75 8.46L26.75 8.46L26.75 9.91L26.75 9.91Q26.75 10.39 26.75 10.99L26.75 10.99L26.75 10.99Q26.75 11.59 26.77 12.11L26.77 12.11ZM34.62 7.92L35.46 7.92L35.46 7.92Q36.01 7.92 36.41 7.78L36.41 7.78L36.41 7.78Q36.81 7.63 37.06 7.38L37.06 7.38L37.06 7.38Q37.31 7.13 37.43 6.78L37.43 6.78L37.43 6.78Q37.55 6.43 37.55 6.02L37.55 6.02L37.55 6.02Q37.55 5.18 37.06 4.74L37.06 4.74L37.06 4.74Q36.58 4.30 35.53 4.30L35.53 4.30L34.65 4.30L34.65 4.30Q34.62 5.18 34.62 6.07L34.62 6.07L34.62 6.07Q34.62 6.96 34.62 7.92L34.62 7.92ZM39.10 12.08L40.29 12.21L40.29 12.85L40.29 12.85Q39.68 12.99 39.09 12.99L39.09 12.99L39.09 12.99Q38.35 12.99 37.89 12.78L37.89 12.78L37.89 12.78Q37.44 12.57 37.31 11.96L37.31 11.96L36.85 9.90L36.85 9.90Q36.76 9.52 36.63 9.28L36.63 9.28L36.63 9.28Q36.50 9.03 36.30 8.89L36.30 8.89L36.30 8.89Q36.09 8.75 35.80 8.69L35.80 8.69L35.80 8.69Q35.52 8.64 35.14 8.64L35.14 8.64L34.62 8.64L34.62 8.64Q34.62 9.52 34.62 10.37L34.62 10.37L34.62 10.37Q34.62 11.23 34.65 12.07L34.65 12.07L35.87 12.21L35.87 12.85L31.71 12.85L31.71 12.21L32.91 12.08L32.91 12.08Q32.94 11.20 32.94 10.31L32.94 10.31L32.94 10.31Q32.94 9.42 32.94 8.51L32.94 8.51L32.94 7.92L32.94 7.92Q32.94 7.03 32.94 6.14L32.94 6.14L32.94 6.14Q32.94 5.25 32.91 4.35L32.91 4.35L31.71 4.23L31.71 3.58L35.85 3.58L35.85 3.58Q37.45 3.58 38.33 4.21L38.33 4.21L38.33 4.21Q39.21 4.84 39.21 5.94L39.21 5.94L39.21 5.94Q39.21 6.33 39.09 6.71L39.09 6.71L39.09 6.71Q38.98 7.08 38.72 7.41L38.72 7.41L38.72 7.41Q38.46 7.73 38.05 7.98L38.05 7.98L38.05 7.98Q37.63 8.23 37.04 8.36L37.04 8.36L37.04 8.36Q37.65 8.54 38.04 8.97L38.04 8.97L38.04 8.97Q38.43 9.41 38.63 10.16L38.63 10.16L39.10 12.08ZM44.84 11.49L44.84 9.23L44.84 9.23Q44.52 9.32 44.23 9.42L44.23 9.42L44.23 9.42Q43.95 9.52 43.75 9.59L43.75 9.59L43.75 9.59Q42.99 9.88 42.76 10.26L42.76 10.26L42.76 10.26Q42.52 10.63 42.52 11.00L42.52 11.00L42.52 11.00Q42.52 11.28 42.59 11.45L42.59 11.45L42.59 11.45Q42.67 11.62 42.80 11.75L42.80 11.75L42.80 11.75Q43.11 12.05 43.61 12.05L43.61 12.05L43.61 12.05Q43.89 12.05 44.15 11.94L44.15 11.94L44.15 11.94Q44.41 11.82 44.84 11.49L44.84 11.49ZM47.33 11.83L47.66 12.11L47.66 12.11Q47.39 12.63 47.08 12.81L47.08 12.81L47.08 12.81Q46.76 12.99 46.31 12.99L46.31 12.99L46.31 12.99Q45.72 12.99 45.37 12.74L45.37 12.74L45.37 12.74Q45.02 12.49 44.90 12.05L44.90 12.05L44.90 12.05Q44.65 12.31 44.41 12.50L44.41 12.50L44.41 12.50Q44.18 12.68 43.95 12.81L43.95 12.81L43.95 12.81Q43.72 12.94 43.46 13.00L43.46 13.00L43.46 13.00Q43.19 13.06 42.87 13.06L42.87 13.06L42.87 13.06Q42.07 13.06 41.52 12.62L41.52 12.62L41.52 12.62Q40.98 12.18 40.98 11.34L40.98 11.34L40.98 11.34Q40.98 11.03 41.08 10.74L41.08 10.74L41.08 10.74Q41.17 10.44 41.45 10.16L41.45 10.16L41.45 10.16Q41.72 9.87 42.20 9.60L42.20 9.60L42.20 9.60Q42.69 9.34 43.44 9.07L43.44 9.07L43.44 9.07Q43.72 8.97 44.09 8.87L44.09 8.87L44.09 8.87Q44.46 8.76 44.84 8.65L44.84 8.65L44.84 8.27L44.84 8.27Q44.84 7.32 44.55 6.96L44.55 6.96L44.55 6.96Q44.27 6.59 43.58 6.59L43.58 6.59L43.58 6.59Q43.46 6.59 43.31 6.61L43.31 6.61L43.31 6.61Q43.16 6.62 43.01 6.65L43.01 6.65L42.81 7.55L42.81 7.55Q42.64 8.43 41.94 8.43L41.94 8.43L41.94 8.43Q41.64 8.43 41.44 8.25L41.44 8.25L41.44 8.25Q41.24 8.06 41.20 7.77L41.20 7.77L41.20 7.77Q41.34 6.96 42.10 6.45L42.10 6.45L42.10 6.45Q42.85 5.94 44.07 5.94L44.07 5.94L44.07 5.94Q45.28 5.94 45.83 6.52L45.83 6.52L45.83 6.52Q46.38 7.11 46.38 8.57L46.38 8.57L46.38 11.51L46.38 11.51Q46.38 12.17 46.79 12.17L46.79 12.17L46.79 12.17Q46.94 12.17 47.05 12.09L47.05 12.09L47.05 12.09Q47.17 12.01 47.26 11.90L47.26 11.90L47.33 11.83ZM52.99 10.54L53.84 10.54L53.70 12.85L48.03 12.85L48.03 12.32L51.91 6.79L49.36 6.79L48.99 8.34L48.12 8.29L48.23 6.19L53.70 6.19L53.70 6.71L49.88 12.24L52.57 12.24L52.99 10.54ZM58.69 11.49L58.69 9.23L58.69 9.23Q58.37 9.32 58.08 9.42L58.08 9.42L58.08 9.42Q57.79 9.52 57.60 9.59L57.60 9.59L57.60 9.59Q56.84 9.88 56.60 10.26L56.60 10.26L56.60 10.26Q56.36 10.63 56.36 11.00L56.36 11.00L56.36 11.00Q56.36 11.28 56.44 11.45L56.44 11.45L56.44 11.45Q56.52 11.62 56.64 11.75L56.64 11.75L56.64 11.75Q56.95 12.05 57.46 12.05L57.46 12.05L57.46 12.05Q57.74 12.05 58.00 11.94L58.00 11.94L58.00 11.94Q58.25 11.82 58.69 11.49L58.69 11.49ZM61.18 11.83L61.50 12.11L61.50 12.11Q61.24 12.63 60.92 12.81L60.92 12.81L60.92 12.81Q60.61 12.99 60.16 12.99L60.16 12.99L60.16 12.99Q59.57 12.99 59.22 12.74L59.22 12.74L59.22 12.74Q58.87 12.49 58.74 12.05L58.74 12.05L58.74 12.05Q58.49 12.31 58.26 12.50L58.26 12.50L58.26 12.50Q58.03 12.68 57.80 12.81L57.80 12.81L57.80 12.81Q57.57 12.94 57.30 13.00L57.30 13.00L57.30 13.00Q57.04 13.06 56.71 13.06L56.71 13.06L56.71 13.06Q55.92 13.06 55.37 12.62L55.37 12.62L55.37 12.62Q54.82 12.18 54.82 11.34L54.82 11.34L54.82 11.34Q54.82 11.03 54.92 10.74L54.92 10.74L54.92 10.74Q55.02 10.44 55.29 10.16L55.29 10.16L55.29 10.16Q55.57 9.87 56.05 9.60L56.05 9.60L56.05 9.60Q56.53 9.34 57.29 9.07L57.29 9.07L57.29 9.07Q57.57 8.97 57.94 8.87L57.94 8.87L57.94 8.87Q58.31 8.76 58.69 8.65L58.69 8.65L58.69 8.27L58.69 8.27Q58.69 7.32 58.40 6.96L58.40 6.96L58.40 6.96Q58.11 6.59 57.43 6.59L57.43 6.59L57.43 6.59Q57.30 6.59 57.16 6.61L57.16 6.61L57.16 6.61Q57.01 6.62 56.85 6.65L56.85 6.65L56.66 7.55L56.66 7.55Q56.49 8.43 55.79 8.43L55.79 8.43L55.79 8.43Q55.48 8.43 55.29 8.25L55.29 8.25L55.29 8.25Q55.09 8.06 55.05 7.77L55.05 7.77L55.05 7.77Q55.19 6.96 55.94 6.45L55.94 6.45L55.94 6.45Q56.70 5.94 57.92 5.94L57.92 5.94L57.92 5.94Q59.12 5.94 59.68 6.52L59.68 6.52L59.68 6.52Q60.23 7.11 60.23 8.57L60.23 8.57L60.23 11.51L60.23 11.51Q60.23 12.17 60.63 12.17L60.63 12.17L60.63 12.17Q60.79 12.17 60.90 12.09L60.90 12.09L60.90 12.09Q61.01 12.01 61.11 11.90L61.11 11.90L61.18 11.83Z"></path></g><!----><g data-v-423bf9ae="" id="ae6061da-0cd8-4492-9f0c-396d388f1e9d" transform="matrix(1.0868111504448785,0,0,1.0868111504448785,120.74473429518693,-0.23894260335429607)" stroke="none" fill="black"><g clip-rule="evenodd"><path d="M12.983 10.59l17.018 88.223-5.872-59.049 29.021-1.892-.054-9.883L64.549 1 53.622 18.977z"></path><path d="M59.389 54.548l5.16-53.541-8.74 39.716-19.612 1.045 1.57 20.462-7.766 36.583 12.057-39.899z"></path><path d="M62.8 67.182l.549-10.453-15.979 3.755-.032 11.797-17.337 26.532 21.68-27.616zM65.711 62.394l14.841-4.731 1.509-12.532-15.899 2.095zM72.07 44.502l10.988-1.417 1.581-10.278-8.079-.373L64.549 1l8.43 30.967z"></path><path d="M87.413 31.294l1.256-9.506-9.544-2.694L64.549 1l14.483 22.437-.422 7z"></path></g></g><!----></svg>